<?xml version="1.0" standalone="no"?>
<!DOCTYPE svg PUBLIC "-//W3C//DTD SVG 20010904//EN"
 "http://www.w3.org/TR/2001/REC-SVG-20010904/DTD/svg10.dtd">
<svg version="1.0" xmlns="http://www.w3.org/2000/svg"
 width="1280.000000pt" height="640.000000pt" viewBox="0 0 1280.000000 640.000000"
 preserveAspectRatio="xMidYMid meet">
<g transform="translate(0.000000,640.000000) scale(0.100000,-0.100000)"
fill="#5bce2e" stroke="none">
<path fill="#5bce2e" d="M4626 4773 c-11 -3 -25 -11 -32 -17 -6 -7 -60 -18 -118 -25 -120 -13
-245 -47 -342 -91 -219 -99 -410 -307 -544 -592 -47 -99 -58 -116 -75 -113
-51 11 -271 25 -490 30 -686 16 -1176 84 -1860 257 -219 55 -715 195 -810 228
-78 27 -171 36 -218 21 -20 -7 -39 -16 -42 -21 -3 -5 31 -20 74 -35 82 -27
145 -62 144 -80 0 -5 -34 -24 -74 -41 -83 -36 -134 -78 -142 -120 -5 -25 2
-36 43 -75 59 -58 118 -81 320 -124 85 -19 247 -57 359 -84 335 -84 616 -132
863 -150 119 -8 131 -11 210 -49 l83 -41 195 -6 c107 -3 402 -10 655 -15 253
-6 516 -13 585 -16 l125 -7 1 -101 c1 -55 3 -168 5 -251 3 -103 0 -159 -8
-177 l-13 -28 -297 0 c-702 0 -1513 -76 -2298 -214 -305 -54 -835 -173 -835
-187 0 -4 13 -10 29 -14 33 -7 47 -20 52 -49 6 -31 23 -29 75 9 108 77 135 89
206 93 78 5 81 0 45 -63 -33 -58 -105 -107 -242 -165 -129 -55 -204 -105 -237
-157 l-20 -33 49 0 c123 0 415 44 743 111 630 130 801 158 1145 188 463 41
600 52 1134 91 509 36 546 38 558 22 51 -66 94 -141 99 -174 6 -32 15 -44 53
-71 25 -17 116 -99 202 -182 208 -200 301 -254 437 -255 34 0 62 -3 62 -7 0
-5 14 -16 30 -25 17 -9 30 -25 30 -34 0 -13 6 -15 38 -9 102 19 168 25 427 35
304 11 483 29 585 59 36 10 117 44 181 74 140 66 175 77 256 77 79 0 128 -21
262 -114 230 -158 281 -174 659 -201 118 -8 218 -17 223 -20 17 -11 59 21 91
70 l33 50 3 -42 c3 -47 6 -49 49 -32 15 6 113 33 216 60 116 30 210 60 247 80
53 28 61 37 71 73 15 54 14 53 177 205 l144 133 41 -6 c23 -3 134 -15 247 -26
271 -26 356 -43 433 -89 28 -16 29 -16 57 19 l28 34 53 -17 c89 -27 186 -45
344 -62 256 -27 384 -54 469 -97 38 -19 40 -19 78 -2 39 18 42 17 127 -4 104
-27 153 -28 208 -2 l43 19 61 -25 c142 -58 314 -93 774 -159 416 -59 525 -86
627 -152 90 -59 142 -74 357 -103 197 -26 221 -33 308 -86 90 -57 135 -65 168
-34 13 12 27 35 30 51 14 64 -29 90 -220 134 -132 30 -215 61 -215 79 0 7 16
31 35 54 39 45 81 62 155 62 59 0 102 -27 141 -90 17 -27 36 -50 43 -50 16 0
66 90 66 118 0 34 -26 44 -123 49 -72 4 -118 13 -209 44 -147 48 -336 100
-693 190 -341 86 -583 154 -734 208 -124 44 -157 49 -187 26 -41 -31 -113 -6
-189 66 -28 26 -34 28 -65 18 -99 -30 -313 -3 -462 58 -61 25 -71 26 -278 28
-224 3 -356 15 -712 65 -300 42 -436 57 -569 66 l-115 6 19 40 c16 31 21 72
27 191 5 84 13 164 18 178 l10 26 194 6 c106 4 225 12 263 17 39 6 174 15 300
20 l230 8 125 41 c100 34 147 43 245 51 211 17 348 48 735 166 348 107 407
120 548 128 140 8 171 17 287 90 111 69 164 87 244 85 58 -2 73 2 111 26 97
61 198 99 581 219 181 56 301 106 379 157 64 41 150 116 150 130 0 21 -65 6
-135 -31 -138 -73 -174 -49 -136 90 12 45 19 90 16 101 -5 15 -2 19 17 19 13
0 50 9 83 21 32 11 69 18 82 14 17 -4 23 -1 23 10 0 30 -27 81 -51 96 -25 17
-133 59 -149 59 -5 0 -18 -17 -29 -37 -22 -44 -73 -94 -116 -116 -48 -24 -148
-38 -218 -31 -63 6 -64 6 -143 -44 -175 -109 -277 -147 -378 -140 -58 4 -63 3
-108 -33 -59 -47 -129 -63 -227 -53 l-69 6 -139 -70 c-282 -142 -453 -198
-648 -209 -97 -6 -115 -10 -156 -35 -227 -139 -614 -248 -887 -248 -46 0 -75
-6 -111 -24 -68 -35 -156 -56 -266 -63 -89 -6 -96 -8 -101 -29 -4 -15 2 -36
15 -57 77 -124 -86 -207 -320 -163 -47 9 -103 16 -125 16 -36 0 -115 -18 -156
-35 -16 -6 -18 1 -18 73 0 62 4 85 18 102 17 21 21 21 77 11 32 -6 76 -11 97
-11 44 0 78 -28 78 -63 0 -23 3 -22 108 30 59 29 116 63 127 74 l20 21 -264
-3 -264 -4 -28 85 c-39 118 -128 290 -199 385 -203 271 -492 465 -883 595 -88
29 -100 30 -110 16 -7 -8 -25 -20 -40 -26 -36 -13 -143 -13 -168 0 -21 12 -25
40 -7 58 17 17 7 16 -132 -13 -240 -51 -360 -94 -680 -244 -120 -56 -203 -90
-215 -87 -11 3 -74 37 -140 77 -154 92 -281 152 -375 178 -41 12 -79 21 -85
21 -5 0 -23 -19 -39 -43 -15 -23 -44 -54 -64 -70 -66 -51 -115 -60 -382 -67
-284 -8 -321 -16 -401 -88 -47 -42 -52 -44 -94 -39 -25 4 -67 18 -94 32 -28
14 -52 21 -54 17 -2 -4 -14 -38 -27 -77 -27 -86 -63 -151 -92 -166 -19 -10
-25 -8 -50 20 -59 66 -22 196 87 307 82 82 134 96 421 114 122 7 167 14 228
35 86 30 126 27 153 -9 l18 -23 26 19 c22 16 45 20 126 21 96 2 133 13 133 38
0 14 -44 29 -140 50 -63 14 -123 18 -235 18 -82 -1 -159 -4 -169 -6z m2194
-158 c0 -35 -89 -139 -151 -177 -38 -24 -104 -40 -134 -32 -33 8 -32 33 1 94
44 80 114 118 222 119 34 1 62 -1 62 -4z m393 -34 c21 -5 41 -12 44 -15 4 -3
-8 -26 -25 -50 -17 -24 -36 -56 -42 -70 l-10 -26 -159 0 c-94 0 -162 4 -166
10 -12 19 8 81 35 109 16 15 43 32 62 38 41 13 209 16 261 4z m-1737 -32 c60
-30 93 -71 74 -94 -36 -44 -251 -73 -335 -45 -32 11 -35 15 -35 52 0 33 6 46
35 74 41 39 59 43 147 40 46 -2 81 -11 114 -27z m6980 -50 c28 -54 13 -119
-38 -166 -52 -48 -159 -78 -197 -54 -21 13 -20 111 2 144 9 15 48 42 85 61 37
19 76 41 87 49 23 18 38 9 61 -34z m-6016 26 c36 -19 36 -23 6 -83 -50 -98
-119 -147 -198 -140 -64 7 -72 16 -59 63 15 55 60 115 110 147 51 32 97 36
141 13z m1095 -49 c62 -16 104 -38 129 -65 19 -21 19 -22 0 -48 -28 -37 -87
-56 -153 -49 -62 7 -142 39 -167 68 -17 18 -17 22 -3 46 17 32 72 62 114 62
17 0 53 -6 80 -14z m-1716 -87 c33 -22 61 -47 61 -55 0 -7 -12 -22 -27 -31
-23 -15 -49 -18 -173 -16 -135 1 -145 3 -142 20 6 39 27 63 81 92 80 44 123
42 200 -10z m6320 26 c47 -24 46 -42 -5 -102 -99 -116 -238 -189 -292 -154
-11 7 -7 28 20 110 29 87 36 101 55 101 12 0 46 10 75 21 106 43 111 43 147
24z m-6019 -15 c0 -24 -41 -50 -80 -50 -36 0 -40 3 -40 24 0 13 6 27 13 29 23
10 107 7 107 -3z m-1080 -44 c154 -19 260 -44 260 -61 0 -7 -8 -27 -17 -44
-15 -25 -28 -33 -73 -42 -58 -11 -340 -74 -605 -134 -254 -58 -580 -113 -592
-101 -12 11 57 115 112 171 179 180 525 259 915 211z m2855 -97 c63 -81 75
-102 75 -130 0 -64 -42 -58 -178 24 -51 30 -110 58 -132 62 -48 8 -53 33 -15
70 22 23 32 25 117 25 l94 0 39 -51z m3872 6 c-17 -121 -125 -215 -284 -250
-29 -6 -33 -4 -33 16 0 39 64 219 79 219 7 0 50 11 95 24 44 14 95 27 111 29
17 2 32 5 34 6 2 0 1 -19 -2 -44z m-11214 24 c45 -12 47 -26 7 -61 -16 -14
-30 -35 -30 -46 0 -40 -274 -34 -288 6 -6 19 68 86 109 99 45 14 154 16 202 2z
m5600 -24 c58 -25 61 -29 43 -62 -23 -46 -80 -75 -157 -81 -57 -4 -73 -1 -108
19 -29 16 -41 29 -41 45 0 33 45 81 88 93 45 12 132 6 175 -14z m872 14 c209
-26 425 -105 601 -221 110 -73 264 -215 264 -245 0 -9 -38 -87 -84 -172 -100
-186 -118 -237 -114 -323 l3 -63 47 -3 c46 -3 49 -1 103 52 62 63 101 79 121
51 51 -69 44 -355 -13 -503 l-17 -45 -140 8 c-170 10 -217 8 -230 -5 -19 -19
15 -30 90 -30 85 0 109 -13 98 -55 -12 -47 -81 -107 -169 -145 -88 -38 -95
-43 -95 -81 0 -31 15 -39 76 -39 54 0 84 -14 84 -39 0 -18 -62 -45 -167 -74
-26 -7 -43 -17 -43 -26 0 -13 -70 -226 -102 -311 -8 -22 -10 -23 -19 -7 -14
23 -71 22 -144 -3 -71 -25 -135 -27 -135 -5 0 27 47 110 82 144 43 43 101 76
190 111 l73 27 -70 4 c-39 2 -149 2 -245 -1 -170 -6 -426 3 -438 14 -11 12 41
55 98 80 74 33 208 53 420 61 248 9 293 14 285 34 -20 51 -36 138 -31 167 4
18 25 57 47 86 l40 53 -48 7 c-90 12 -466 8 -606 -7 -250 -26 -412 -60 -570
-119 -119 -44 -154 -49 -229 -36 -91 16 -171 43 -368 127 -390 166 -901 269
-1490 299 -69 4 -134 10 -145 14 -43 16 -73 175 -77 410 l-3 144 110 23 c61
13 297 55 525 93 626 106 862 162 1123 270 l117 48 103 -48 c56 -26 192 -85
302 -130 227 -93 388 -171 484 -234 60 -40 73 -44 146 -49 82 -6 310 -68 525
-143 169 -59 247 -48 266 39 10 46 -11 56 -86 44 -73 -12 -110 0 -110 35 0 13
19 60 42 106 l42 82 41 0 c22 0 58 -7 80 -15 22 -8 56 -14 75 -14 l35 0 -26
14 c-46 25 -282 102 -491 160 -454 127 -623 181 -778 252 l-65 30 30 15 c70
37 222 79 330 91 65 8 164 6 250 -4z m-1590 -59 c43 0 45 -14 11 -85 -27 -60
-77 -106 -140 -130 -91 -35 -101 8 -26 110 36 49 50 77 50 101 l0 33 35 -15
c19 -7 50 -14 70 -14z m-4545 -32 c0 -71 -69 -134 -158 -145 -94 -11 -162 19
-162 72 0 32 51 81 97 93 21 5 80 10 131 11 l92 1 0 -32z m10494 -35 c-20 -83
-84 -155 -181 -202 -34 -17 -66 -31 -72 -31 -6 0 -16 18 -22 40 -24 81 31 137
186 192 44 15 83 28 88 28 4 0 4 -12 1 -27z m-4961 -13 c57 -21 58 -22 51 -53
-16 -74 -71 -107 -177 -107 -98 0 -137 9 -137 32 0 34 28 75 82 118 60 48 79
49 181 10z m-1250 9 c33 -9 37 -13 31 -32 -13 -43 -64 -105 -111 -136 -63 -42
-147 -66 -321 -91 -78 -12 -175 -29 -215 -39 -79 -21 -90 -16 -77 29 13 45 39
77 88 110 89 59 200 76 260 40 39 -24 39 -24 155 57 101 71 127 80 190 62z
m-3958 -17 c57 -19 58 -26 19 -96 l-26 -46 -160 0 -159 0 6 23 c34 114 178
167 320 119z m2725 -29 c23 -21 31 -38 33 -68 l2 -39 -60 -23 c-75 -27 -102
-28 -143 -3 -28 17 -31 24 -26 47 25 103 126 148 194 86z m-2321 -49 c8 -7
-31 -83 -53 -103 -43 -40 -89 -51 -221 -51 -118 0 -125 1 -125 20 0 30 59 90
110 112 55 24 145 36 225 30 33 -3 62 -6 64 -8z m9391 -7 c0 -37 -35 -108 -70
-144 -42 -42 -103 -75 -213 -117 -75 -28 -79 -25 -52 41 8 19 15 52 15 72 1
36 2 37 98 84 148 73 222 94 222 64z m-4223 -68 c65 -23 162 -53 216 -67 89
-23 97 -28 91 -46 -16 -54 -85 -95 -189 -111 -22 -4 -47 -9 -56 -11 -11 -3
-24 7 -38 29 -17 28 -19 43 -14 87 5 46 4 52 -9 47 -167 -63 -260 -61 -293 8
-23 49 -19 61 28 84 65 32 128 28 264 -20z m1266 6 c105 -50 211 -237 169
-301 -15 -25 -96 29 -197 130 -55 56 -113 111 -128 123 -33 25 -29 39 17 59
37 17 89 13 139 -11z m-6073 4 c0 -6 -7 -27 -16 -45 -27 -56 -66 -70 -269
-103 -33 -5 -69 -13 -79 -17 -17 -7 -19 -4 -13 29 16 100 103 143 300 146 50
1 77 -3 77 -10z m284 -30 c36 -10 38 -12 32 -42 -9 -45 -33 -77 -69 -92 -18
-7 -87 -15 -155 -18 l-123 -6 6 22 c17 57 66 100 146 128 62 21 108 23 163 8z
m2095 0 c36 -13 38 -23 12 -65 -57 -93 -226 -141 -401 -115 l-75 12 -108 -41
c-110 -41 -171 -49 -222 -30 -23 9 -26 14 -21 38 9 37 37 74 72 94 28 16 224
73 291 85 39 6 52 -14 34 -54 -6 -14 -10 -28 -7 -31 10 -9 95 18 188 62 52 24
103 46 113 49 36 9 92 7 124 -4z m6261 -37 c0 -4 -13 -28 -28 -53 -57 -89
-151 -153 -269 -183 -34 -9 -64 -16 -67 -16 -3 0 -6 33 -6 74 l0 73 168 56
c165 56 202 65 202 49z m-7987 -17 c25 -10 21 -27 -15 -62 -51 -49 -140 -86
-223 -91 -80 -5 -115 7 -115 39 0 47 62 98 145 120 34 9 181 5 208 -6z m437
-39 c0 -39 -29 -79 -73 -103 -25 -13 -66 -18 -184 -21 -84 -2 -153 -1 -153 2
0 4 6 19 14 34 43 82 137 118 314 121 l82 1 0 -34z m419 3 c-48 -68 -183 -137
-267 -138 -42 -1 -106 21 -118 41 -9 14 22 54 60 77 49 31 144 49 254 50 l93
1 -22 -31z m6689 -67 c4 -41 -17 -79 -74 -136 -63 -62 -153 -106 -215 -106
-86 0 -94 13 -58 87 25 51 66 78 187 122 45 16 95 39 110 50 35 26 46 22 50
-17z m-2762 -18 c32 -16 60 -34 62 -40 6 -23 -50 -73 -106 -95 -72 -27 -193
-29 -242 -4 -30 15 -31 19 -25 53 8 48 29 78 68 103 49 31 165 23 243 -17z
m2382 -63 c11 -7 11 -14 -1 -42 -20 -47 -39 -62 -139 -109 -48 -22 -100 -52
-116 -65 -33 -27 -42 -23 -61 28 -24 62 47 143 154 177 63 20 141 25 163 11z
m-343 -60 l30 -8 -60 -59 c-89 -89 -207 -148 -332 -169 l-43 -7 0 37 c0 55 34
112 88 146 83 52 230 80 317 60z m-1270 -60 c22 -15 55 -51 73 -81 26 -44 32
-64 32 -112 0 -69 -7 -71 -74 -26 -81 53 -139 164 -122 234 8 30 28 27 91 -15z
m-264 -8 l42 -16 -23 -19 c-12 -10 -32 -18 -45 -18 -32 0 -70 33 -62 53 8 21
35 21 88 0z m-4037 -102 c9 -30 16 -74 16 -98 l0 -43 -59 0 c-73 0 -82 10 -89
98 l-4 68 53 21 c30 12 57 18 61 14 3 -3 13 -30 22 -60z m-50 -212 c41 -36 83
-116 92 -178 l7 -44 -56 6 c-37 3 -78 17 -116 38 l-59 32 -6 56 c-3 31 -9 75
-12 98 -5 39 -4 44 17 52 28 10 80 -13 133 -60z m4402 -50 c49 -30 68 -80 69
-179 0 -47 -4 -111 -8 -143 l-9 -57 -38 30 c-82 65 -151 215 -135 297 14 74
22 85 58 78 17 -4 46 -16 63 -26z m-4036 -247 c0 -25 -30 -71 -64 -97 -109
-83 -315 -87 -341 -6 -8 27 -15 27 -84 -8 -93 -47 -174 -71 -243 -71 -92 0
-98 7 -64 70 15 28 28 67 29 85 1 30 4 34 31 38 17 2 190 4 383 3 282 -1 353
-4 353 -14z m-1150 3 c0 -12 -55 -92 -84 -123 -54 -58 -148 -92 -252 -92 -43
0 -44 1 -38 28 30 124 132 190 297 191 42 1 77 -1 77 -4z m320 -3 c0 -19 -60
-101 -88 -121 -55 -39 -115 -61 -169 -61 -28 0 -54 4 -57 8 -8 14 30 86 62
116 17 16 55 37 84 47 53 18 168 26 168 11z m1228 -47 l43 -18 -23 -24 c-53
-57 -204 -103 -337 -103 -46 0 -51 2 -51 23 0 40 43 99 90 125 41 21 54 23
140 19 60 -2 111 -10 138 -22z m-2348 -43 c-24 -91 -115 -152 -237 -160 l-73
-5 0 27 c0 67 52 130 132 160 49 19 169 36 181 25 5 -3 4 -25 -3 -47z m380 43
c-7 -9 -16 -44 -19 -78 l-6 -62 -48 -24 c-38 -19 -69 -24 -158 -29 l-111 -5 7
24 c13 45 55 108 89 134 50 38 103 54 185 54 65 1 72 -1 61 -14z m-780 -67 c0
-61 -61 -117 -166 -152 -110 -36 -267 -77 -273 -70 -3 2 0 26 7 52 16 63 80
122 158 147 56 18 236 62 262 64 8 1 12 -13 12 -41z m3116 -35 l-1 -56 -85
-18 c-105 -22 -162 -23 -199 -4 -48 24 -55 72 -16 110 23 24 29 25 163 25
l138 0 0 -57z m3188 -30 c71 -109 49 -261 -50 -353 -70 -64 -84 -52 -84 70 0
151 50 320 95 320 8 0 26 -17 39 -37z m-6784 7 c0 -6 -9 -27 -19 -48 -46 -88
-148 -150 -313 -191 -136 -33 -143 -30 -109 44 37 82 139 157 258 190 59 16
183 19 183 5z m3901 -10 c35 -11 75 -29 88 -39 l25 -19 -36 -36 c-34 -34 -39
-36 -103 -36 -93 0 -245 21 -245 34 0 28 44 79 83 96 54 25 109 25 188 0z
m3156 -94 c20 -20 -80 -101 -139 -113 l-31 -6 5 71 c7 100 13 105 94 76 36
-12 69 -25 71 -28z m-7547 12 c-1 -129 -143 -220 -327 -209 -13 0 -23 5 -23
10 0 24 87 135 128 163 50 35 140 67 190 67 30 1 32 -1 32 -31z m6440 3 c0
-79 -29 -101 -171 -131 -57 -12 -115 -28 -127 -37 -23 -14 -24 -14 -17 9 12
36 31 71 56 97 40 42 145 80 247 90 7 1 12 -11 12 -28z m-1704 -26 c30 -13 54
-28 54 -32 0 -18 -33 -54 -62 -69 -35 -18 -162 -43 -220 -44 -37 0 -38 1 -38
34 0 26 9 43 40 75 22 22 40 45 40 50 0 28 109 20 186 -14z m3204 10 c0 -3 -6
-20 -14 -38 -19 -45 -62 -85 -105 -97 -27 -7 -238 -40 -258 -40 -2 0 -3 16 -3
35 0 73 43 117 133 135 47 9 247 13 247 5z m-1941 -21 c29 -6 31 -9 31 -48 l0
-42 -114 -52 c-99 -45 -220 -82 -232 -70 -9 9 19 79 46 116 52 72 173 115 269
96z m2263 -26 c34 -20 47 -39 63 -96 5 -19 1 -25 -32 -39 -49 -22 -259 -25
-315 -5 -34 12 -37 16 -31 40 10 43 33 72 74 93 85 43 172 45 241 7z m-4657
-4 c66 -8 203 -33 305 -55 296 -64 409 -87 503 -100 l88 -12 -3 -46 -3 -46
-115 -18 c-160 -24 -454 -27 -576 -4 -123 22 -252 68 -337 118 -69 41 -197
158 -197 180 0 13 153 5 335 -17z m-427 -12 c23 -15 72 -61 109 -101 72 -79
141 -121 200 -121 28 0 34 -5 53 -46 11 -26 20 -53 20 -61 0 -10 6 -12 19 -8
59 18 132 23 190 11 70 -15 108 -44 117 -92 l6 -32 71 38 c93 49 145 63 368
99 102 17 214 39 249 50 36 12 66 21 67 21 7 0 -13 -70 -28 -101 -19 -39 -72
-90 -117 -113 -15 -7 -58 -23 -97 -35 -67 -21 -70 -21 -83 -4 -7 10 -16 30
-19 45 l-5 27 -37 -24 c-53 -35 -151 -69 -282 -99 -157 -35 -149 -37 -149 30
0 50 -2 55 -17 49 -55 -23 -95 -24 -225 -8 -143 17 -151 21 -129 61 5 9 11 27
12 40 4 22 1 23 -71 26 -62 2 -89 9 -151 39 -42 20 -94 39 -116 43 l-40 6 19
36 c10 20 18 42 18 50 0 32 -31 69 -77 91 -26 13 -49 25 -51 26 -19 14 78 83
119 85 9 0 35 -13 57 -28z m2492 -1 c0 -5 -19 -34 -42 -66 -51 -68 -138 -136
-233 -182 -70 -33 -205 -77 -213 -68 -2 2 4 30 14 62 13 43 31 71 69 109 59
59 134 92 295 129 58 13 106 24 108 24 1 1 2 -3 2 -8z m2868 -31 c29 -5 86
-10 126 -10 l73 0 -5 -26 c-7 -36 -60 -87 -108 -103 -21 -7 -97 -15 -168 -18
-111 -5 -127 -4 -120 9 76 126 109 167 128 163 12 -2 45 -9 74 -15z m-3524
-19 c22 -18 5 -37 -39 -44 -53 -9 -95 9 -95 40 0 25 1 25 59 21 33 -2 67 -10
75 -17z m4015 -37 c29 -6 31 -9 31 -53 l0 -46 -57 -23 c-63 -24 -147 -42 -199
-42 -32 0 -34 2 -34 33 0 99 119 159 259 131z m-1995 -26 c4 -13 9 -61 12
-108 3 -66 1 -96 -13 -134 -20 -54 -68 -100 -117 -112 -26 -6 -28 -5 -22 12 4
10 11 71 16 135 12 149 30 197 85 220 30 12 32 11 39 -13z m-1864 -21 c0 -18
-48 -83 -91 -124 -19 -17 -68 -50 -109 -72 -90 -48 -250 -114 -257 -107 -10 9
17 100 42 142 49 84 133 125 340 168 44 9 75 6 75 -7z m4269 2 c23 -8 31 -17
31 -36 0 -38 -38 -83 -89 -106 -55 -25 -178 -29 -228 -8 -28 12 -32 17 -26 40
18 74 99 121 208 121 40 0 86 -5 104 -11z m377 -90 c47 -12 51 -20 29 -59 -8
-14 -14 -35 -15 -47 0 -23 0 -23 -175 -23 -164 0 -175 1 -175 19 0 35 44 85
90 103 53 20 179 24 246 7z m363 -67 c77 -57 -2 -142 -131 -142 -111 0 -160
53 -105 115 47 55 179 70 236 27z m-3439 -57 c14 -8 40 -14 58 -15 30 0 32 -2
32 -35 0 -103 -71 -168 -212 -194 -52 -9 -58 -4 -58 52 1 44 21 96 60 157 27
43 37 50 64 50 17 -1 42 -7 56 -15z m3770 -28 c69 -28 74 -49 24 -101 l-36
-37 -52 11 c-50 10 -106 5 -159 -16 -14 -5 -17 1 -17 35 0 52 22 96 58 115 40
22 118 19 182 -7z m-4716 -10 c36 -16 38 -18 24 -39 -8 -12 -43 -39 -77 -60
-59 -35 -65 -37 -106 -28 -68 15 -95 31 -95 54 1 30 23 67 51 83 32 18 152 12
203 -10z m345 -46 c19 -12 8 -49 -28 -95 -17 -21 -33 -46 -36 -55 -6 -21 -76
-31 -217 -31 l-88 0 15 38 c31 73 104 127 194 142 65 11 143 11 160 1z m4779
-41 c31 -12 32 -13 32 -71 l0 -59 -129 0 c-147 0 -191 10 -191 45 0 34 44 81
88 94 44 12 153 7 200 -9z m340 -82 c66 -10 72 -13 72 -34 0 -13 -12 -46 -27
-74 -32 -58 -28 -57 -209 -39 l-112 12 -6 29 c-6 31 14 90 35 103 40 25 95 26
247 3z"/>
</g>
</svg>
